<svg width="131" height="128" viewBox="0 0 131 128" fill="none" xmlns="http://www.w3.org/2000/svg">
<path d="M88.8682 0.00488281H88.8867L89.0986 0.0146484L89.1182 0.015625L89.3291 0.03125L89.3496 0.0322266L89.5605 0.0527344L89.5791 0.0546875L89.79 0.0800781L89.8086 0.0830078L90.0186 0.113281L90.0381 0.116211L90.2461 0.151367L90.2656 0.154297L90.4736 0.195312L90.4922 0.199219L90.6992 0.244141L90.7188 0.249023L90.9248 0.299805L90.9434 0.304688L91.1475 0.360352L91.166 0.365234L91.3691 0.425781L91.3877 0.431641L91.5898 0.49707L91.6074 0.50293L91.8076 0.573242L91.8262 0.580078L92.0244 0.655273L92.042 0.663086L92.2383 0.743164L92.2559 0.75L92.4502 0.834961L92.4678 0.842773L92.6602 0.932617L92.6777 0.941406L92.8672 1.03516L92.8848 1.04395L93.0713 1.14258L93.0898 1.15234L93.2744 1.25586L93.291 1.26465L93.4727 1.37305L93.4902 1.38281L93.6855 1.50488L93.8623 1.62207L93.8789 1.63281L94.0527 1.75391L94.0684 1.76465L94.2393 1.88965L94.2559 1.90137L94.4229 2.03125L94.4385 2.04297L94.6035 2.17676L94.6182 2.18848L94.7793 2.3252L94.7949 2.33887L94.9521 2.47949L94.9658 2.49219L95.1211 2.63672L95.1357 2.65137L95.2861 2.7998L95.2998 2.81348L95.4473 2.96582L95.46 2.97949L95.6035 3.13574L95.6172 3.15039L95.7568 3.30957L95.7695 3.32422L95.9053 3.48633L95.917 3.50195L96.0488 3.66797L96.0605 3.68262L96.1885 3.85156L96.2002 3.86719L96.3232 4.03906L96.335 4.05566L96.4541 4.23047L96.4648 4.24707L96.5791 4.4248L96.5898 4.44141L96.7002 4.62207L96.7109 4.63867L96.8164 4.82227L96.8262 4.83887L96.9277 5.02441L96.9365 5.04199L97.0342 5.23047L97.042 5.24707L97.1348 5.4375L97.1436 5.45605L97.2314 5.64941L97.2383 5.66602L97.3213 5.86035L97.3291 5.87891L97.4072 6.07617L97.415 6.09473L97.4883 6.29297L97.4941 6.31055L97.5625 6.51172L97.5684 6.5293L97.6328 6.73145L97.6387 6.75098L97.6973 6.9541L97.7559 7.17676L97.7607 7.19629L97.8096 7.40234L97.8135 7.4209L97.8574 7.62793L97.8613 7.64844L97.8994 7.85645L97.9023 7.875L97.9365 8.08398L97.9395 8.10352L97.9678 8.31348L97.9697 8.33301L97.9932 8.54297L97.9951 8.5625L98.0127 8.77344L98.0146 8.79297L98.0273 9.00391L98.0283 9.02344L98.0361 9.23438V9.25488L98.0391 9.4668V117.669L98.0361 117.882V117.902L98.0283 118.112L98.0273 118.131L98.0146 118.344L98.0127 118.364L97.9951 118.574L97.9932 118.594L97.9697 118.804L97.9668 118.824L97.9385 119.032L97.9365 119.051L97.9023 119.262L97.8994 119.28L97.8613 119.489L97.8564 119.51L97.8135 119.716L97.8086 119.733L97.7607 119.939L97.7559 119.957L97.7021 120.163L97.6973 120.183L97.6387 120.386L97.6318 120.406L97.5684 120.607L97.5635 120.624L97.4951 120.825L97.4873 120.847L97.4141 121.043L97.4072 121.06L97.3291 121.257L97.3232 121.272L97.2402 121.469L97.2305 121.489L97.1436 121.682L97.1338 121.7L97.042 121.891L97.0352 121.903L96.9385 122.093L96.9277 122.113L96.8262 122.299L96.8164 122.315L96.71 122.498L96.7002 122.515L96.5898 122.695L96.5801 122.711L96.4648 122.889L96.4521 122.908L96.333 123.082L96.3252 123.093L96.2021 123.267L96.1885 123.284L96.0605 123.453L96.0498 123.468L95.918 123.635L95.9043 123.651L95.7686 123.813L95.7578 123.826L95.6182 123.986L95.6025 124.003L95.459 124.158L95.4482 124.17L95.3008 124.322L95.2852 124.338L95.1348 124.486L95.1182 124.502L94.9639 124.646L94.9521 124.655L94.7949 124.797L94.7832 124.807L94.6221 124.945L94.6006 124.963L94.4355 125.095L94.4248 125.104L94.2568 125.233L94.2393 125.246L94.0684 125.371L94.0518 125.383L93.8779 125.504L93.8672 125.511L93.6895 125.629L93.667 125.645L93.4873 125.755L93.4766 125.762L93.2939 125.87L93.2695 125.884L93.085 125.986L93.0742 125.992L92.8867 126.091L92.8691 126.101L92.6797 126.195L92.6553 126.207L92.4629 126.295L92.4531 126.3L92.2588 126.385L92.2334 126.396L92.0381 126.475L92.0283 126.479L91.8301 126.555L91.8047 126.563L91.6045 126.633L91.5947 126.637L91.3936 126.703L91.3682 126.712L91.165 126.771L91.1475 126.776L90.9434 126.832L90.9258 126.837L90.7197 126.888L90.6943 126.894L90.4873 126.938L90.4775 126.939L90.2695 126.981L90.2441 126.986L90.0352 127.021L90.0176 127.023L89.8086 127.054L89.791 127.056L89.5801 127.081L89.5625 127.083L89.3516 127.104L89.3262 127.106L89.1143 127.12L89.0967 127.121L88.8848 127.13L88.8682 127.131L88.6562 127.136H88.4092L88.1973 127.131L88.1719 127.13L87.96 127.118L87.9424 127.117L87.7314 127.101L87.7139 127.1L87.5029 127.078L87.4766 127.075L87.2666 127.048L87.2578 127.047L87.0479 127.017L87.0225 127.013L86.8135 126.976L86.7959 126.972L86.5889 126.931L86.5703 126.927L86.3643 126.88L86.3389 126.874L86.1328 126.821L86.124 126.818L85.9199 126.763L85.8945 126.756L85.6914 126.693L85.6738 126.688L85.4727 126.62L85.4629 126.617L85.2637 126.548L85.2383 126.538L85.041 126.462L85.0234 126.455L84.8271 126.374L84.8027 126.363L84.5986 126.271L84.4072 126.18L84.3896 126.172L84.2002 126.077L84.1836 126.067L83.9961 125.968L83.9785 125.959L83.7949 125.854L83.7773 125.845L83.5957 125.735L83.5781 125.725L83.3994 125.611L83.3818 125.601L83.2061 125.482L83.1953 125.476L83.0215 125.354L82.999 125.338L82.8281 125.211L82.8174 125.203V125.202L82.6504 125.073L82.6338 125.06L82.4697 124.926C82.4674 124.924 82.4652 124.922 82.4629 124.92L38.709 88.2285H7.74512C7.74381 88.2285 7.74251 88.2275 7.74121 88.2275C7.73926 88.2275 7.7373 88.2285 7.73535 88.2285L7.56543 88.2266L7.5459 88.2256L7.375 88.2197L7.35449 88.2188L7.18457 88.208L7.16602 88.207L6.99609 88.1924L6.97656 88.1904L6.80664 88.1709L6.78809 88.1689L6.61914 88.1465L6.59863 88.1436L6.43066 88.1162L6.41113 88.1123L6.24316 88.0811L6.22461 88.0781L6.05859 88.043L6.03906 88.0381L5.87305 87.999L5.85352 87.9941L5.68848 87.9502L5.6709 87.9453L5.50684 87.8984L5.4873 87.8926L5.3252 87.8408L5.30664 87.835L5.14453 87.7793L5.12598 87.7725L4.9668 87.7129L4.94922 87.7061L4.79102 87.6436L4.77246 87.6357L4.61523 87.5684L4.59766 87.5605L4.44238 87.4893L4.4248 87.4805L4.27148 87.4062L4.25488 87.3975L4.10352 87.3193L4.08594 87.3096L3.93652 87.2275L3.91992 87.2178L3.77246 87.1328L3.75488 87.1221L3.60938 87.0322L3.59375 87.0225L3.45117 86.9297L3.43359 86.918L3.29297 86.8213L3.27832 86.8105L3.13965 86.7109L3.12402 86.6992L2.98828 86.5957L2.97266 86.584L2.83984 86.4775L2.82422 86.4648L2.69336 86.3555L2.67871 86.3428L2.55078 86.2295L2.53613 86.2168L2.41211 86.1006L2.39746 86.0869L2.27539 85.9688L2.26172 85.9541L2.14258 85.832L2.12891 85.8184L2.0127 85.6934L2 85.6787L1.88672 85.5508L1.87402 85.5361L1.76367 85.4053L1.75195 85.3906L1.64551 85.2578L1.63379 85.2422L1.53027 85.1064L1.51855 85.0918L1.41895 84.9531L1.40723 84.9365L1.2998 84.7803L1.20703 84.6377L1.19629 84.6201L1.10645 84.4756L1.09668 84.459L1.01074 84.3115L1.00098 84.2949L0.918945 84.1455L0.90918 84.1279L0.831055 83.9766L0.822266 83.959L0.748047 83.8057L0.739258 83.7881L0.667969 83.6328L0.660156 83.6152L0.59375 83.459L0.585938 83.4414L0.522461 83.2832L0.514648 83.2637L0.456055 83.1035L0.449219 83.0869L0.394531 82.9258L0.387695 82.9062L0.335938 82.7432L0.331055 82.7246L0.283203 82.5615L0.27832 82.543L0.234375 82.3779L0.229492 82.3584L0.19043 82.1934L0.185547 82.1738L0.150391 82.0078L0.146484 81.9873L0.115234 81.8203L0.112305 81.8008L0.0849609 81.6328L0.0820312 81.6133L0.0595703 81.4443L0.0566406 81.4258L0.0380859 81.2568L0.0361328 81.2363L0.0214844 81.0664L0.0205078 81.0469L0.00976562 80.877L0.00878906 80.8574L0.00195312 80.6865V80.667L0 80.4971V46.6396L0.00195312 46.4688V46.4492L0.00878906 46.2793L0.00976562 46.2598L0.0205078 46.0898L0.0214844 46.0703L0.0361328 45.9004L0.0380859 45.8799L0.0566406 45.71L0.0595703 45.6914L0.0820312 45.5234L0.0849609 45.5039L0.112305 45.335L0.115234 45.3164L0.146484 45.1494L0.150391 45.1289L0.186523 44.9619L0.19043 44.9434L0.229492 44.7773L0.234375 44.7578L0.27832 44.5938L0.283203 44.5752L0.331055 44.4111L0.335938 44.3926L0.387695 44.2305L0.394531 44.2109L0.449219 44.0498L0.456055 44.0322L0.515625 43.873L0.522461 43.8535L0.585938 43.6953L0.59375 43.6777L0.660156 43.5205L0.667969 43.5029L0.739258 43.3486L0.748047 43.3301L0.822266 43.1768L0.831055 43.1592L0.910156 43.0088L0.918945 42.9912L1.00098 42.8418L1.01074 42.8242L1.09668 42.6777L1.10645 42.6611L1.19629 42.5156L1.20703 42.499L1.2998 42.3564L1.31055 42.3408L1.40625 42.2002L1.41895 42.1826L1.51953 42.0449L1.53027 42.0293L1.63379 41.8945L1.64551 41.8789L1.75195 41.7461L1.76465 41.7305L1.87402 41.5996L1.88672 41.5859L1.99902 41.458L2.0127 41.4434L2.12891 41.3184L2.14258 41.3037L2.26172 41.1816L2.27539 41.168L2.39746 41.0488L2.41211 41.0361L2.53613 40.9199L2.55078 40.9062L2.67871 40.7939L2.69336 40.7812L2.82422 40.6709L2.83984 40.6582L2.97266 40.5518L2.98828 40.54L3.12402 40.4375L3.13965 40.4248L3.27832 40.3252L3.4502 40.207L3.59277 40.1143L3.61035 40.1035L3.75586 40.0137L3.77148 40.0049L3.91895 39.9189L3.93652 39.9082L4.08594 39.8262L4.10352 39.8174L4.25488 39.7383L4.27148 39.7305L4.4248 39.6553L4.44238 39.6475L4.59766 39.5762L4.61523 39.5684L4.77246 39.501L4.79102 39.4932L4.94922 39.4297L4.9668 39.4229L5.12598 39.3643L5.14551 39.3564L5.30762 39.3018L5.32422 39.2959L5.48633 39.2441L5.50684 39.2383L5.6709 39.1904L5.68945 39.1855L5.85449 39.1426L5.87305 39.1377L6.03906 39.0986L6.05762 39.0938L6.22363 39.0586L6.24316 39.0547L6.41113 39.0234L6.43066 39.0205L6.59863 38.9932L6.61914 38.9902L6.78809 38.9678L6.80664 38.9648L6.97656 38.9463L6.99609 38.9443L7.16602 38.9297L7.18555 38.9287L7.35547 38.918L7.375 38.917L7.5459 38.9102H7.56543L7.73535 38.9082H38.709L82.4629 2.21582C82.4652 2.21389 82.4674 2.21186 82.4697 2.20996L82.6338 2.07617L82.6494 2.06445L82.8164 1.93359L82.8311 1.92285L83.002 1.79688L83.0186 1.78418L83.1914 1.66309L83.207 1.65234L83.3838 1.53418L83.3994 1.52344L83.5791 1.41113L83.5957 1.40039L83.7773 1.29199L83.7949 1.28125L83.9785 1.17773L83.9951 1.16895L84.1816 1.06836L84.2002 1.05957L84.3887 0.963867L84.4062 0.956055L84.5977 0.865234L84.8262 0.763672L85.0225 0.682617L85.042 0.674805L85.2393 0.598633L85.2568 0.592773L85.4561 0.520508L85.4746 0.514648L85.6748 0.448242L85.6943 0.442383L85.8965 0.379883L85.916 0.375L86.1191 0.318359L86.1387 0.3125L86.3438 0.261719L86.3623 0.256836L86.5693 0.209961L86.5879 0.206055L86.7959 0.164062L86.8154 0.161133L87.0244 0.124023L87.043 0.121094L87.2529 0.0898438L87.2715 0.0869141L87.4824 0.0605469L87.502 0.0585938L87.7129 0.0371094L87.7314 0.0361328L87.9424 0.0195312L87.9629 0.0185547L88.1738 0.0078125L88.1934 0.00683594L88.4053 0.000976562H88.4238L88.6357 0H88.6562L88.8682 0.00488281ZM88.4482 1.60059L88.2373 1.60645L88.2363 1.60547L88.0635 1.61426L88.0645 1.61523L87.8535 1.63086L87.8525 1.62988L87.6807 1.64746L87.4707 1.6748L87.2939 1.70117L87.0908 1.7373L86.9131 1.77148L86.7334 1.8125L86.5479 1.85938L86.3623 1.91016L86.1689 1.96875L85.9951 2.02637L85.9961 2.02734L85.7969 2.09863L85.625 2.16406L85.457 2.2334L85.2646 2.32031L85.2637 2.31934L85.0898 2.40234L84.9189 2.48926L84.918 2.48828L84.75 2.5791L84.582 2.6748L84.417 2.77344L84.2715 2.86523L84.0947 2.9834L83.9541 3.08203L83.7979 3.19629L83.7988 3.19727L83.6318 3.32715L83.6309 3.32617L83.4951 3.4375C83.4936 3.43883 83.4928 3.44107 83.4912 3.44238L39.5137 40.3203C39.4933 40.3374 39.4716 40.3525 39.4502 40.3672C39.4469 40.3694 39.4437 40.3718 39.4404 40.374C39.4032 40.3987 39.364 40.4188 39.3242 40.4365C39.2565 40.4667 39.1845 40.4887 39.1084 40.499C39.0993 40.5003 39.0902 40.502 39.0811 40.5029C39.0544 40.5056 39.0273 40.5078 39 40.5078H7.75488L7.60352 40.5088L7.44238 40.5146L7.2832 40.5254L7.28223 40.5244L7.14258 40.5371L6.9834 40.5557L6.98242 40.5547L6.84082 40.5752L6.70312 40.5957L6.7041 40.5967L6.5459 40.626L6.4082 40.6553L6.24219 40.6943L6.0957 40.7334L6.09473 40.7324L5.9707 40.7686L5.8252 40.8145L5.67773 40.8652L5.53125 40.9199L5.38379 40.9795L5.24609 41.0391L5.24512 41.0381L5.11816 41.0967L4.97363 41.168L4.83887 41.2383L4.72461 41.3008L4.59375 41.377L4.46582 41.4551L4.33789 41.5371L4.21387 41.623L4.07617 41.7227L3.9707 41.8008L3.97168 41.8018L3.83887 41.9082L3.72363 42.0049L3.61035 42.1055L3.50098 42.208L3.39258 42.3135L3.28809 42.4219L3.28711 42.4209L3.19727 42.5166L3.19824 42.5176L3.08594 42.6445L3 42.7451L2.89453 42.8789L2.81348 42.9834L2.72656 43.1045L2.63086 43.2451L2.54785 43.373L2.47754 43.4834L2.47852 43.4844L2.40137 43.6133L2.40234 43.6143L2.3291 43.7451L2.25098 43.8965L2.19336 44.0137L2.12305 44.1689L2.07031 44.2891L2.07129 44.29L2.01465 44.4287L1.95605 44.5889L1.91211 44.7119L1.91309 44.7129L1.86133 44.876L1.82422 45.001L1.8252 45.002L1.78125 45.167L1.74707 45.3135L1.71582 45.4609L1.69141 45.5889L1.66504 45.7578L1.64648 45.8877L1.62793 46.0576L1.61621 46.1865L1.60645 46.3574L1.60156 46.5078L1.59961 46.6396V80.4775L1.60156 80.6279L1.60645 80.7793L1.61719 80.9492L1.62793 81.0781L1.64746 81.248L1.66504 81.3789L1.69238 81.5469L1.71582 81.6748L1.74707 81.8232L1.78125 81.9697L1.8252 82.1338L1.86133 82.2607L1.91309 82.4229L1.95605 82.5479L2.01465 82.7061L2.07129 82.8457L2.12305 82.9668L2.18555 83.1035L2.25098 83.2393L2.33008 83.3906L2.39258 83.5049L2.46875 83.6357L2.54785 83.7637L2.64062 83.9062H2.63965L2.71484 84.0146L2.80859 84.1455L2.89355 84.2568L3.00098 84.3896H3L3.09863 84.5059H3.09766L3.19824 84.6182L3.28809 84.7148L3.3916 84.8223L3.50098 84.9277L3.61035 85.0303L3.72363 85.1309L3.83887 85.2275L3.97168 85.334L4.07617 85.4141L4.19922 85.5029L4.33984 85.5986H4.33887L4.45898 85.6768L4.57715 85.749L4.70703 85.8252L4.83887 85.8984L4.99023 85.9766L5.1084 86.0342L5.25293 86.1006L5.38379 86.1572L5.54199 86.2197H5.54102L5.68457 86.2725H5.68359L5.82715 86.3213H5.82617L5.96094 86.3643L6.11816 86.4082L6.25195 86.4443L6.3877 86.4766L6.55566 86.5117H6.55469L6.68359 86.5361H6.68457L6.8418 86.5615L7.00293 86.583H7.00195L7.14062 86.5977L7.30273 86.6123H7.30176L7.44434 86.6211L7.58398 86.626L7.75488 86.6289H39C39.0273 86.6289 39.0545 86.6292 39.0811 86.6318C39.0902 86.6328 39.0992 86.6355 39.1084 86.6367C39.1645 86.6443 39.2187 86.6572 39.2705 86.6758C39.3567 86.7068 39.4394 86.7532 39.5137 86.8154L83.4912 123.693C83.4926 123.695 83.4937 123.696 83.4951 123.697L83.6475 123.821L83.7939 123.935L83.9492 124.051L84.1074 124.16H84.1064L84.2549 124.26L84.4287 124.369L84.582 124.462L84.748 124.556L84.9355 124.655L85.0898 124.732L85.2705 124.818L85.4482 124.898L85.6328 124.976L85.7891 125.036L85.9893 125.105H85.9883L86.1748 125.168L86.3398 125.219L86.5439 125.274H86.543L86.7393 125.324L86.9033 125.361L87.0918 125.399H87.0928L87.2939 125.435L87.4854 125.463H87.4844L87.6748 125.487L87.8711 125.507H87.8701L88.0635 125.521L88.2471 125.531L88.4268 125.535H88.6387L88.833 125.531L89.0186 125.522L89.2012 125.511L89.3975 125.491L89.5811 125.47L89.79 125.439L89.9766 125.407L90.1553 125.372L90.3418 125.333L90.5234 125.288L90.7236 125.233L90.8955 125.182L91.0889 125.118L91.252 125.062L91.4521 124.985L91.6377 124.91L91.7969 124.84L91.9766 124.757L92.1377 124.677L92.3135 124.584L92.4785 124.492L92.6562 124.388L92.8037 124.296L92.9785 124.18L93.1309 124.074L93.2959 123.954L93.4463 123.838L93.584 123.727L93.7354 123.598L93.875 123.473L94.0176 123.34L94.1523 123.207L94.2959 123.06L94.4287 122.916L94.5527 122.773L94.6641 122.64L94.7949 122.476L94.9033 122.331L95.0215 122.165L95.1201 122.022L95.2354 121.844L95.3359 121.679L95.4229 121.529L95.5244 121.345L95.6104 121.175L95.6963 120.999L95.7666 120.843L95.8486 120.649L95.9141 120.485L95.9873 120.289L96.043 120.125L96.1064 119.924L96.1592 119.74L96.2031 119.571L96.252 119.365L96.2871 119.198L96.3223 119.01L96.3564 118.799L96.3789 118.629L96.4023 118.419L96.417 118.247L96.4297 118.034L96.4365 117.862L96.4395 117.649V9.4668L96.4365 9.27441V9.27344L96.4297 9.10156L96.417 8.89062V8.88965L96.4023 8.71777L96.3789 8.50781V8.50684L96.3564 8.33691L96.3262 8.14648L96.291 7.95898L96.252 7.76953L96.208 7.58301L96.1592 7.39648L96.1064 7.21289L96.0488 7.0293L95.9863 6.84668L95.9131 6.64746V6.64648L95.8506 6.48828L95.7744 6.31055L95.6865 6.11816V6.11719L95.6113 5.96289L95.5234 5.79199L95.4219 5.60645V5.60547L95.3359 5.45703L95.2354 5.29297L95.1211 5.11523V5.11426L95.0234 4.97168L94.9004 4.80078H94.8994L94.7959 4.66309L94.6641 4.49707V4.49609L94.5537 4.36426L94.4141 4.20508V4.2041L94.2969 4.07812L94.1631 3.93945L94.0127 3.79102V3.79004L93.8867 3.67285L93.7441 3.54492L93.582 3.4082V3.40723L93.4326 3.28711V3.28613L93.2959 3.18164L93.125 3.05664V3.05566L92.9668 2.94727V2.94629L92.8223 2.85156V2.85254L92.6426 2.74023V2.73926L92.4932 2.65137L92.3262 2.55859L92.1562 2.46875L91.9834 2.38184L91.8096 2.30078L91.6338 2.22461L91.4375 2.14453V2.14355L91.2686 2.08008L91.0762 2.0127V2.01172L90.8936 1.95312H90.8926L90.7275 1.90332L90.5303 1.85059L90.3486 1.80566L90.1602 1.76367L89.96 1.72559V1.72461L89.7803 1.69434L89.5996 1.66797V1.66895L89.3906 1.64355L89.2178 1.62695L89.0088 1.6123L88.833 1.60352V1.60449L88.624 1.59961H88.4473L88.4482 1.60059Z" fill="black"/>
<path d="M116.486 16.6328L116.508 16.6338L116.623 16.6387L116.644 16.6406L116.759 16.6484L116.781 16.6504L116.896 16.6621L116.915 16.6641L117.029 16.6787L117.052 16.6816L117.166 16.6992L117.187 16.7031L117.3 16.7236L117.319 16.7275L117.432 16.751L117.455 16.7559L117.567 16.7822L117.587 16.7871L117.699 16.8174L117.719 16.8223L117.829 16.8555L117.849 16.8613L117.958 16.8965L117.98 16.9033L118.089 16.9424L118.108 16.9492L118.216 16.9902L118.235 16.998L118.342 17.042L118.361 17.0498L118.467 17.0967L118.486 17.1055L118.59 17.1553L118.608 17.165L118.712 17.2168L118.731 17.2275L118.832 17.2822L118.851 17.292L118.95 17.3496L118.968 17.3604L119.066 17.4209L119.084 17.4316L119.181 17.4951L119.199 17.5068L119.294 17.5723L119.312 17.585L119.405 17.6533L119.421 17.666L119.513 17.7363L119.528 17.749L119.618 17.8213L119.636 17.8359L119.723 17.9111L119.738 17.9248L119.823 18.0029L119.839 18.0166L119.922 18.0957L120.02 18.1934L120.032 18.208L120.111 18.291L120.127 18.3086L120.203 18.3945L120.216 18.4092L120.291 18.4971L120.306 18.5146L120.377 18.6045L120.391 18.6221L120.46 18.7139L120.473 18.7305L120.539 18.8242L120.552 18.8408L120.616 18.9365L120.628 18.9541L120.69 19.0518L120.701 19.0693L120.76 19.167L120.771 19.1875L120.828 19.2881L120.838 19.3047L120.893 19.4062L120.954 19.5293C120.957 19.5353 120.959 19.5418 120.962 19.5479L121.996 21.7607L122.004 21.7793L122.983 24.0166L122.991 24.0342L123.917 26.2949L123.924 26.3125L124.794 28.5947L124.801 28.6133L125.615 30.916L125.621 30.9346L126.379 33.2559L126.385 33.2744L127.087 35.6143L127.092 35.6328L127.736 37.9883L127.741 38.0078L128.329 40.3789L128.333 40.3975L128.863 42.7812L128.867 42.8008L129.338 45.1973L129.342 45.2158L129.755 47.623L129.758 47.6426L130.112 50.0586L130.115 50.0781L130.411 52.5029L130.413 52.5225L130.65 54.9531L130.651 54.9727L130.829 57.4082L130.83 57.4277L130.949 59.8672L130.95 59.8857L131.009 62.3281L131.01 62.3477V64.79L131.009 64.8086L130.95 67.251L130.949 67.2695L130.83 69.71L130.829 69.7285L130.651 72.165L130.65 72.1846L130.413 74.6152L130.411 74.6348L130.115 77.0586L130.112 77.0781L129.758 79.4941L129.755 79.5137L129.342 81.9209L129.338 81.9395L128.867 84.3359L128.863 84.3555L128.333 86.7393L128.329 86.7588L127.741 89.1289L127.736 89.1484L127.092 91.5039L127.087 91.5225L126.385 93.8623L126.379 93.8809L125.621 96.2021L125.615 96.2207L124.801 98.5234L124.794 98.542L123.924 100.824L123.917 100.842L122.991 103.103L122.983 103.12L122.004 105.358L121.996 105.376L120.962 107.589C120.961 107.592 120.958 107.594 120.957 107.597C120.955 107.6 120.955 107.604 120.953 107.607L120.902 107.71L120.893 107.729L120.838 107.83L120.828 107.849L120.771 107.949L120.701 108.066L120.69 108.084L120.628 108.182L120.616 108.199L120.552 108.295L120.539 108.312L120.473 108.405L120.46 108.422L120.391 108.514L120.377 108.531L120.306 108.621L120.291 108.639L120.216 108.727L120.203 108.741L120.127 108.827L120.112 108.844L120.033 108.928L120.02 108.942L119.938 109.024L119.922 109.04L119.839 109.119L119.822 109.135L119.737 109.212L119.723 109.225L119.636 109.3L119.618 109.314L119.528 109.387L119.514 109.399L119.422 109.47L119.404 109.483L119.311 109.551L119.294 109.563L119.199 109.629L119.182 109.641L119.085 109.703L119.065 109.716L118.967 109.775L118.951 109.785L118.852 109.843L118.831 109.854L118.73 109.909L118.712 109.919L118.608 109.971L118.592 109.979L118.487 110.029L118.467 110.039L118.361 110.086L118.342 110.094L118.235 110.138L118.216 110.146L118.108 110.187L118.088 110.194L117.979 110.232L117.959 110.239L117.85 110.274L117.829 110.281L117.719 110.313L117.697 110.319L117.567 110.354L117.455 110.38L117.434 110.385L117.32 110.408L117.299 110.413L117.185 110.433L117.166 110.437L117.052 110.454L117.031 110.457L116.916 110.472L116.895 110.474L116.779 110.485L116.759 110.487L116.644 110.495L116.624 110.496L116.509 110.502L116.485 110.503L116.37 110.505H116.351L116.235 110.504H116.214L116.1 110.5L116.077 110.499L115.962 110.492L115.94 110.491L115.826 110.48L115.806 110.479L115.69 110.466L115.67 110.463L115.556 110.447L115.533 110.443L115.419 110.425L115.4 110.421L115.287 110.399L115.266 110.395L115.153 110.37L115.133 110.365L115.021 110.337L115 110.331L114.889 110.3L114.868 110.294L114.758 110.26L114.738 110.254L114.63 110.217L114.608 110.21L114.5 110.17L114.481 110.163L114.354 110.112L114.248 110.066L114.229 110.058L114.125 110.01L114.105 110.001L114.002 109.95C113.995 109.947 113.988 109.942 113.981 109.938L110.102 107.963H110.103C110.099 107.961 110.096 107.961 110.093 107.959L109.98 107.899L109.963 107.891L109.853 107.829L109.835 107.818L109.726 107.754L109.709 107.744L109.601 107.677L109.584 107.666L109.478 107.597L109.463 107.587L109.358 107.515L109.341 107.502L109.238 107.427L109.223 107.415L109.122 107.338L109.107 107.326L109.008 107.247L108.993 107.234L108.896 107.152L108.881 107.139L108.785 107.054L108.771 107.041L108.679 106.955L108.665 106.941L108.574 106.852L108.561 106.838L108.472 106.747L108.458 106.732L108.372 106.639L108.359 106.625L108.275 106.53L108.263 106.515L108.181 106.417L108.168 106.401L108.089 106.303L108.078 106.288L108.001 106.187L107.988 106.169L107.914 106.066L107.903 106.051L107.832 105.946L107.821 105.93L107.752 105.823L107.741 105.807L107.675 105.698L107.665 105.681L107.601 105.57L107.592 105.555L107.531 105.443L107.521 105.426L107.463 105.312L107.455 105.297L107.399 105.183L107.39 105.163L107.337 105.048L107.329 105.029L107.279 104.912L107.272 104.896L107.218 104.759L107.174 104.64L107.167 104.621L107.126 104.501L107.12 104.482L107.082 104.361L107.076 104.343L107.041 104.221L107.035 104.202L107.003 104.079L106.969 103.936L106.965 103.918L106.938 103.793L106.935 103.774L106.911 103.649L106.908 103.629L106.888 103.504L106.885 103.484L106.868 103.358L106.865 103.34L106.852 103.214L106.85 103.193L106.839 103.066L106.837 103.048L106.829 102.921L106.828 102.902L106.823 102.774V102.755L106.821 102.628V102.608L106.822 102.481L106.823 102.461L106.828 102.334V102.315L106.836 102.188L106.838 102.169L106.849 102.043L106.851 102.022L106.864 101.896L106.866 101.877L106.884 101.751L106.886 101.732L106.906 101.606L106.909 101.586L106.933 101.461L106.937 101.443L106.962 101.319L106.967 101.299L106.996 101.175L107 101.156L107.032 101.033L107.037 101.016L107.072 100.894L107.078 100.873L107.116 100.752L107.122 100.734L107.163 100.614L107.17 100.595L107.214 100.476L107.221 100.459L107.268 100.341L107.275 100.321L107.325 100.204L107.333 100.188L107.386 100.071L108.261 98.1475L109.08 96.2197L109.852 94.2734L110.569 92.3262L111.246 90.3457L111.874 88.3486L112.454 86.3359L112.983 84.3105L113.47 82.2529L113.9 80.2041L114.28 78.1455L114.61 76.0771L114.89 74.002L115.119 71.9209L115.297 69.835L115.425 67.7451L115.5 65.6719L115.526 63.5781L115.5 61.4648V61.4639L115.425 59.3916L115.297 57.3018L115.119 55.2158L114.89 53.1348L114.61 51.0596L114.28 48.9912L113.9 46.9326L113.47 44.8838L112.989 42.8457L112.454 40.8008V40.7998L111.875 38.7891V38.7881L111.246 36.791V36.79L110.569 34.8096H110.568L109.852 32.8633L109.08 30.917L108.261 28.9893L107.386 27.0654C107.385 27.063 107.383 27.0601 107.382 27.0576L107.333 26.9492L107.325 26.9316L107.275 26.8145L107.268 26.7959L107.221 26.6777L107.214 26.6602L107.17 26.54L107.163 26.5225L107.123 26.4023L107.116 26.3838L107.078 26.2627L107.072 26.2422L107.037 26.1201L107.032 26.1025L107 25.9795L106.996 25.9609L106.967 25.8379L106.962 25.8164L106.937 25.6924L106.933 25.6748L106.909 25.5498L106.906 25.5293L106.886 25.4043L106.883 25.3848L106.866 25.2588L106.864 25.2402L106.851 25.1143L106.849 25.0938L106.838 24.9668L106.836 24.9482L106.828 24.8213V24.8018L106.823 24.6748L106.822 24.6553L106.821 24.5273V24.5088L106.823 24.3818V24.3613L106.828 24.2344L106.829 24.2158L106.837 24.0889L106.839 24.0693L106.85 23.9434L106.852 23.9219L106.865 23.7959L106.868 23.7773L106.885 23.6514L106.888 23.6318L106.908 23.5068L106.911 23.4863L106.935 23.3613L106.938 23.3428L106.965 23.2188L106.969 23.2012L106.998 23.0771L107.003 23.0566L107.035 22.9336L107.041 22.915L107.076 22.793L107.081 22.7754L107.12 22.6543L107.126 22.6348L107.167 22.5146L107.174 22.4961L107.218 22.377L107.226 22.3584L107.272 22.2402L107.279 22.2236L107.329 22.1064L107.338 22.0879L107.391 21.9727L107.399 21.9541L107.455 21.8398L107.463 21.8232L107.521 21.7109L107.53 21.6934L107.592 21.582L107.601 21.5654L107.665 21.4551L107.675 21.4375L107.741 21.3301L107.752 21.3125L107.821 21.2061L107.832 21.1904L107.903 21.085L107.915 21.0693L107.989 20.9658L108.001 20.9502L108.078 20.8486L108.089 20.834L108.168 20.7344L108.181 20.7188L108.263 20.6221L108.275 20.6064L108.359 20.5117L108.372 20.4971L108.458 20.4033L108.471 20.3896L108.56 20.2988L108.574 20.2842L108.665 20.1953L108.679 20.1816L108.771 20.0947L108.786 20.0811L108.881 19.9971L108.896 19.9844L108.993 19.9023L109.008 19.8896L109.107 19.8096L109.121 19.7988L109.222 19.7217L109.239 19.708L109.342 19.6338L109.357 19.623L109.462 19.5498L109.479 19.5391L109.585 19.4697L109.6 19.46L109.708 19.3926L109.726 19.3818L109.835 19.3174L109.853 19.3076L109.963 19.2451L109.98 19.2363L110.093 19.1768C110.096 19.1749 110.1 19.1727 110.104 19.1709L113.992 17.1914H113.991C113.994 17.1898 113.998 17.1881 114.001 17.1865L114.104 17.1357L114.125 17.126L114.229 17.0781L114.248 17.0693L114.354 17.0244L114.374 17.0156L114.481 16.9727L114.5 16.9658L114.608 16.9258L114.63 16.9189L114.738 16.8818L114.76 16.875L114.87 16.8418L114.889 16.8359L115 16.8047L115.021 16.7988L115.133 16.7715L115.152 16.7666L115.265 16.7412L115.287 16.7363L115.4 16.7148L115.421 16.7109L115.535 16.6924L115.556 16.6885L115.67 16.6729L115.69 16.6699L115.806 16.6572L115.826 16.6553L115.94 16.6455L115.962 16.6436L116.077 16.6367L116.098 16.6357L116.213 16.6318H116.235L116.351 16.6309H116.371L116.486 16.6328ZM116.245 18.2314L116.244 18.2305L116.164 18.2334L116.058 18.2412L116.057 18.2402L115.979 18.2471L115.891 18.2568L115.793 18.2705L115.688 18.2881L115.599 18.3057L115.502 18.3281L115.415 18.3496L115.325 18.375L115.229 18.4053L115.16 18.4268L115.053 18.4678L114.965 18.5029L114.964 18.502L114.879 18.54L114.878 18.5391L114.812 18.5693L114.725 18.6123C114.722 18.6135 114.721 18.6161 114.719 18.6172L110.836 20.5938V20.5947L110.724 20.6533L110.63 20.7061L110.538 20.7607L110.537 20.7598L110.447 20.8174L110.371 20.8652L110.372 20.8662L110.282 20.9268L110.197 20.9883L110.11 21.0547L110.111 21.0557L110.027 21.123L109.93 21.2051L109.863 21.2627L109.864 21.2637L109.785 21.3359L109.695 21.4258L109.621 21.5029L109.56 21.5674L109.561 21.5684L109.489 21.6484L109.408 21.7461L109.407 21.7451L109.352 21.8145L109.353 21.8154L109.287 21.8994L109.288 21.9004L109.214 22.0039L109.163 22.0762L109.095 22.1836L109.039 22.2744L108.994 22.3496L108.995 22.3506L108.934 22.4619L108.885 22.5576L108.838 22.6553L108.793 22.7529L108.751 22.8506L108.711 22.9521L108.681 23.0342L108.64 23.1543L108.607 23.2568L108.582 23.3408L108.583 23.3418L108.555 23.4434L108.526 23.5684L108.504 23.6748L108.484 23.7812L108.47 23.8662L108.453 23.9932L108.441 24.1006L108.433 24.2061L108.426 24.3145L108.422 24.4014L108.421 24.5293L108.423 24.6367L108.426 24.7246L108.434 24.8516L108.44 24.9385L108.452 25.0469L108.466 25.1533L108.486 25.2783L108.503 25.3662L108.528 25.4902L108.549 25.5752L108.575 25.6807L108.604 25.7822L108.637 25.8857L108.677 26.0049L108.708 26.0879L108.748 26.1885L108.798 26.3057L108.833 26.3838C108.836 26.3901 108.84 26.3969 108.843 26.4033L109.717 28.3271L109.725 28.3457L110.552 30.291L110.56 30.3086L111.339 32.2725L111.346 32.291L112.077 34.2744L112.084 34.292L112.767 36.293L112.772 36.3115L113.407 38.3271L113.412 38.3457L113.997 40.377L114.002 40.3955L114.537 42.4404L114.542 42.459L115.027 44.5166L115.031 44.5352L115.466 46.6035L115.47 46.623L115.854 48.7012L115.857 48.7197L116.19 50.8066L116.193 50.8262L116.476 52.9209L116.479 52.9404L116.709 55.041L116.711 55.0596L116.892 57.166L116.893 57.1855L117.021 59.2949L117.022 59.3145L117.1 61.4258L117.101 61.4453L117.126 63.5586V63.5781L117.101 65.6914L117.1 65.7109L117.022 67.8232L117.021 67.8418L116.893 69.9512L116.892 69.9707L116.711 72.0771L116.709 72.0967L116.479 74.1973L116.476 74.2158L116.193 76.3105L116.19 76.3301L115.857 78.417L115.854 78.4365L115.47 80.5137L115.466 80.5332L115.031 82.6016L115.027 82.6201L114.542 84.6777L114.537 84.6963L114.002 86.7412L113.997 86.7598L113.412 88.791L113.407 88.8096L112.772 90.8252L112.767 90.8438L112.084 92.8447L112.077 92.8623L111.346 94.8457L111.339 94.8633L110.56 96.8281L110.552 96.8467L109.725 98.791L109.717 98.8096L108.843 100.733L108.842 100.734L108.789 100.849L108.747 100.948L108.709 101.048L108.708 101.047L108.671 101.149L108.637 101.251L108.604 101.354L108.575 101.456L108.548 101.562L108.527 101.646L108.505 101.752L108.506 101.753L108.485 101.856L108.467 101.982L108.466 101.981L108.452 102.09L108.44 102.197L108.433 102.283L108.434 102.284L108.426 102.411L108.422 102.498L108.421 102.626L108.423 102.734L108.426 102.821L108.433 102.93L108.441 103.036L108.453 103.144L108.468 103.25L108.484 103.355L108.504 103.461L108.526 103.568L108.556 103.691L108.583 103.794L108.613 103.897L108.64 103.982L108.674 104.083L108.711 104.184L108.751 104.285L108.793 104.384L108.837 104.48L108.885 104.578L108.934 104.674L108.985 104.769L109.039 104.861L109.095 104.952L109.153 105.043L109.214 105.133L109.287 105.235L109.341 105.306L109.408 105.391L109.488 105.485L109.557 105.563L109.635 105.647L109.695 105.71L109.786 105.799H109.785L109.864 105.872L109.93 105.931L110.021 106.009L110.111 106.08H110.11L110.182 106.135L110.284 106.209H110.283L110.365 106.266L110.446 106.318L110.538 106.376L110.646 106.439L110.724 106.482L110.819 106.533C110.822 106.535 110.825 106.536 110.828 106.537L114.707 108.514L114.803 108.562L114.878 108.596L114.964 108.633L115.053 108.668L115.161 108.708H115.16L115.249 108.737H115.248L115.318 108.759H115.319L115.415 108.785L115.519 108.812L115.592 108.828L115.686 108.847L115.777 108.862L115.875 108.876L115.979 108.888L116.079 108.896H116.078L116.164 108.901L116.244 108.904H116.347L116.448 108.903L116.529 108.898L116.622 108.893L116.714 108.884L116.821 108.87L116.902 108.858L116.993 108.842L117.101 108.819L117.197 108.797L117.275 108.775L117.358 108.752L117.449 108.723L117.558 108.685L117.636 108.654L117.712 108.623L117.817 108.576L117.9 108.536L117.977 108.497L118.069 108.447L118.133 108.41L118.211 108.362L118.308 108.3L118.368 108.258L118.449 108.199L118.534 108.134L118.608 108.073L118.667 108.022L118.749 107.948L118.816 107.883L118.869 107.83L118.943 107.751L119.009 107.678L119.067 107.607L119.114 107.549L119.184 107.457L119.227 107.397L119.291 107.302L119.342 107.223L119.38 107.16L119.436 107.061L119.479 106.978L119.521 106.893L120.538 104.716L121.511 102.496L122.436 100.236L123.299 97.9717L124.106 95.6875L124.858 93.3838L125.549 91.0811L126.193 88.7256L126.775 86.374L127.301 84.0088L127.765 81.6504L128.178 79.2432L128.529 76.8457L128.82 74.46L129.056 72.0488L129.233 69.6123L129.351 67.1924L129.409 64.79V62.3662L129.351 59.9443L129.233 57.5244L129.056 55.0889V55.0879L128.82 52.6768V52.6758L128.529 50.291L128.178 47.8936L127.765 45.4863V45.4854L127.301 43.1289L126.775 40.7627L126.193 38.4111L125.549 36.0547H125.548L124.858 33.7529L124.106 31.4492L123.299 29.165L122.436 26.9004L121.511 24.6406V24.6396L120.538 22.4209V22.4199L119.513 20.2256L119.47 20.1396V20.1387L119.436 20.0752L119.379 19.9746H119.378L119.342 19.9131L119.291 19.834L119.227 19.7383V19.7373L119.184 19.6787L119.114 19.5869V19.5859L119.056 19.5137H119.055L119.009 19.458L118.932 19.3721H118.931L118.882 19.3193L118.801 19.2373V19.2363L118.748 19.1875L118.663 19.1104V19.1094L118.608 19.0625L118.535 19.0029L118.461 18.9453L118.367 18.877H118.366L118.309 18.8369L118.229 18.7852L118.149 18.7354L118.05 18.6777H118.049L117.967 18.6328V18.6318L117.884 18.5908H117.883L117.798 18.5508H117.797L117.712 18.5127V18.5117L117.636 18.4805L117.537 18.4434H117.536L117.47 18.4199L117.379 18.3906L117.269 18.3584V18.3574L117.177 18.334H117.176L117.085 18.3125H117.084L117.009 18.2969L116.922 18.2812L116.808 18.2637H116.807L116.716 18.252V18.251L116.632 18.2432L116.532 18.2363L116.434 18.2324V18.2314L116.346 18.2305L116.245 18.2314Z" fill="black"/>
</svg>
