<svg width="400" height="400" viewBox="0 0 400 400" fill="none" xmlns="http://www.w3.org/2000/svg">
<rect width="400" height="400" fill="#F92121"/>
<path d="M273.843 195.491C273.843 160.879 245.823 132.821 211.258 132.821L211.247 132.907H176.496L176.592 132.821C168.095 132.821 159.944 129.442 153.935 123.424L111.383 80.8116V49.1206H140.736V71.4185H160.305L160.183 71.397C167.097 71.397 172.699 65.7841 172.699 58.8645L172.785 58.9218V29.5254L172.699 29.5325C172.699 22.613 167.094 17 160.183 17L160.305 17.0286H43.9039L43.7752 17C33.4045 17 25 25.4159 25 35.8006L25.0107 35.9473V152.502L25 152.366C25 159.289 30.6054 164.899 37.5156 164.899L37.4941 165.002H66.8474L66.8045 164.899C73.7182 164.899 79.3201 159.286 79.3201 152.366L79.3272 152.502V132.907H57.063V103.514H88.7398L131.281 146.112C137.29 152.13 140.665 160.292 140.665 168.801L140.736 168.718V230.207L140.665 230.203C140.665 238.712 137.29 246.874 131.281 252.891L88.7076 295.518L88.7756 295.407H57.063V266.354H79.3308V246.759L79.3236 246.637C79.3236 239.714 73.7182 234.105 66.808 234.105L66.8509 234.262H37.4941L37.5156 234.105C30.6054 234.101 25 239.714 25 246.634L25.0107 246.756V363.31L25 363.199C25 373.584 33.4045 382 43.7752 382L43.9039 381.896H47.6146L47.6575 382L111.365 318.206L153.935 275.579C159.944 269.562 168.095 266.183 176.592 266.183L176.496 266.018H211.247L211.258 266.183C245.823 266.183 273.843 238.125 273.843 203.513L274 203.516V195.408L273.843 195.491ZM79.3308 71.4185H57.063V49.1206H79.3308V71.4185ZM207.254 230.833C189.973 230.833 175.963 216.804 175.963 199.5C175.963 182.196 189.973 168.167 207.254 168.167C224.535 168.167 238.544 182.196 238.544 199.5C238.544 216.804 224.535 230.833 207.254 230.833Z" fill="#29D1DA"/>
</svg>
